HIERARCHY
ROOT hip
{
	OFFSET 0.000000 0.000000 0.000000
	CHANNELS 6  Xposition Yposition Zposition Xrotation Zrotation Yrotation
	JOINT abdomen
	{
		OFFSET 0.000000 3.402643 0.000000
			CHANNELS 3 Xrotation Zrotation Yrotation
		JOINT chest
		{
			OFFSET 0.000000 8.438565 -0.680529
				CHANNELS 3 Xrotation Zrotation Yrotation
			JOINT neck
			{
				OFFSET 0.000000 10.207942 -0.272212
					CHANNELS 3 Xrotation Zrotation Yrotation
				JOINT head
				{
					OFFSET 0.000000 3.130431 0.000000
						CHANNELS 3 Xrotation Zrotation Yrotation
					End Site
					{
						OFFSET 0.000000 3.130435 0.000000
					}
				}
			}
			JOINT lCollar
			{
				OFFSET 3.470700 6.669187 -0.816635
					CHANNELS 3 Yrotation Zrotation Xrotation
				JOINT lShldr
				{
					OFFSET 3.198488 0.000000 0.000000
						CHANNELS 3 Zrotation Yrotation Xrotation
					JOINT lForeArm
					{
						OFFSET 10.139888 0.000000 0.000000
							CHANNELS 3 Yrotation Zrotation Xrotation
						JOINT lHand
						{
							OFFSET 8.370511 0.000000 0.000000
								CHANNELS 3 Zrotation Yrotation Xrotation
							End Site
							{
								OFFSET 4.083176 0.000000 0.000000
							}
						}
					}
				}
			}
			JOINT rCollar
			{
				OFFSET -3.470700 6.669187 -0.816635
					CHANNELS 3 Yrotation Zrotation Xrotation
				JOINT rShldr
				{
					OFFSET -3.198488 0.000000 0.000000
						CHANNELS 3 Zrotation Yrotation Xrotation
					JOINT rForeArm
					{
						OFFSET -10.139888 0.000000 0.000000
							CHANNELS 3 Yrotation Zrotation Xrotation
						JOINT rHand
						{
							OFFSET -8.370511 0.000000 0.000000
								CHANNELS 3 Zrotation Yrotation Xrotation
							End Site
							{
								OFFSET -4.083176 0.000000 0.000000
							}
						}
					}
				}
			}
		}
	}
	JOINT lThigh 
	{
		OFFSET 5.308129 -1.633274 1.361059
			CHANNELS 3 Xrotation Zrotation Yrotation
		JOINT lShin
		{
			OFFSET -2.041588 -20.007561 0.000000
				CHANNELS 3 Xrotation Zrotation Yrotation
			JOINT lFoot
			{
				OFFSET 0.000000 -19.190928 -1.224953
					CHANNELS 3 Xrotation Yrotation Zrotation
				End Site
				{
					OFFSET 0.000000 -2.449906 4.627600
				}
			}
		}
	}
	JOINT rThigh
	{
		OFFSET -5.308129 -1.633274 1.361059
			CHANNELS 3 Xrotation Zrotation Yrotation
		JOINT rShin
		{
			OFFSET 2.041588 -20.007561 0.000000
				CHANNELS 3 Xrotation Zrotation Yrotation
			JOINT rFoot
			{
				OFFSET 0.000000 -19.190928 -1.224953
					CHANNELS 3 Xrotation Yrotation Zrotation
				End Site
				{
					OFFSET 0.000000 -2.449906 4.627600
				}
			}
		}
	}
}
MOTION
Frames: 31
Frame Time: 0.032000
-681.397156 45.383499 2165.859131 0.00 0.00 -14.45 0.60 0.00 -0.00 -3.68 -0.01 0.00 0.00 0.00 -0.00 0.00 0.00 -0.00 -0.00 1.00 0.00 -73.01 8.99 18.99 -7.00 -0.00 -0.00 -1.04 -7.98 -4.49 -0.00 1.00 0.00 73.00 -9.00 18.99 6.99 -0.00 0.00 1.03 7.97 -4.49 0.55 -0.01 -0.00 0.00 0.00 -0.00 -0.35 0.00 0.00 0.56 0.00 -0.01 0.00 0.00 -0.00 -0.00 -0.00 0.00 
-681.397156 45.386547 2165.874512 0.00 0.00 -14.45 0.69 0.00 -0.00 -4.18 -0.01 0.00 0.00 0.00 -0.00 0.00 0.00 -0.00 -0.00 1.00 0.00 -73.01 8.99 18.99 -7.00 -0.00 -0.00 -1.04 -7.98 -4.49 -0.00 1.00 0.00 73.00 -9.00 18.99 6.99 -0.00 0.00 1.03 7.97 -4.49 0.62 -0.01 -0.00 0.00 0.00 -0.00 -0.40 0.01 -0.00 0.63 0.00 -0.01 0.00 0.00 -0.00 -0.00 -0.00 0.00 
-681.397156 45.383499 2165.886475 0.00 0.00 -14.45 0.77 0.00 -0.00 -4.68 -0.01 0.00 0.00 0.00 -0.00 0.00 0.00 -0.00 -0.00 1.00 0.00 -73.01 9.00 18.98 -7.00 -0.00 -0.00 -1.04 -7.98 -4.49 -0.00 1.00 0.00 73.00 -9.00 18.99 6.99 -0.00 0.00 1.03 7.97 -4.49 0.70 -0.00 -0.01 0.00 0.00 -0.00 -0.44 0.00 -0.01 0.71 0.00 -0.01 0.00 0.00 -0.00 -0.00 -0.00 0.00 
-681.397156 45.383499 2165.898682 0.00 0.00 -14.45 0.85 0.00 -0.00 -5.17 -0.01 0.00 0.00 0.00 -0.00 0.00 0.00 -0.00 -0.00 1.00 0.00 -73.01 9.00 18.98 -7.00 -0.00 -0.00 -1.04 -7.98 -4.49 -0.00 1.00 0.00 73.00 -9.00 18.99 6.99 -0.00 0.00 1.03 7.97 -4.49 0.78 -0.00 -0.00 0.00 0.00 -0.00 -0.50 0.02 -0.01 0.79 0.00 -0.01 0.00 0.00 -0.00 -0.00 -0.00 0.00 
-681.397156 45.380447 2165.910889 0.00 0.00 -14.45 0.92 0.00 -0.00 -5.61 -0.01 0.00 0.00 0.00 -0.00 0.00 0.00 -0.00 -0.00 1.00 0.00 -73.01 9.00 18.98 -7.00 -0.00 -0.00 -1.04 -7.98 -4.49 -0.00 1.00 0.00 73.00 -9.00 18.99 6.99 -0.00 0.00 1.03 7.97 -4.49 0.86 -0.00 -0.00 0.00 0.00 -0.00 -0.54 0.02 -0.01 0.86 0.00 -0.01 0.00 0.00 -0.00 -0.00 -0.00 0.00 
-681.397156 45.383499 2165.923096 0.00 0.00 -14.45 0.98 0.00 -0.00 -5.98 -0.01 0.00 0.00 0.00 -0.00 0.00 0.00 -0.00 -0.00 1.00 0.00 -73.01 8.99 18.99 -7.00 -0.00 -0.00 -1.04 -7.98 -4.49 -0.00 1.00 0.00 73.00 -9.00 18.99 6.99 -0.00 0.00 1.03 7.97 -4.49 0.91 -0.00 -0.00 0.00 0.00 -0.00 -0.57 0.01 -0.01 0.92 0.00 -0.02 0.00 0.00 -0.00 -0.00 -0.00 0.00 
-681.397156 45.380447 2165.932129 0.00 0.00 -14.45 1.05 0.00 -0.00 -6.35 -0.01 0.00 0.00 0.00 -0.00 0.00 0.00 -0.00 -0.00 1.00 0.00 -73.01 9.00 18.98 -7.00 -0.00 -0.00 -1.04 -7.98 -4.49 -0.00 1.00 0.00 73.00 -9.00 18.99 6.99 -0.00 0.00 1.03 7.97 -4.49 0.98 -0.02 0.00 0.00 0.00 -0.00 -0.56 0.06 0.02 0.99 0.00 -0.02 0.00 0.00 -0.00 -0.00 -0.00 0.00 
-681.397156 45.380447 2165.947510 -0.03 -0.01 -14.45 1.08 0.00 -0.00 -6.61 -0.01 0.00 0.00 0.00 -0.00 0.00 0.00 -0.00 -0.00 1.00 0.00 -73.01 9.00 18.98 -7.00 -0.00 -0.00 -1.04 -7.98 -4.49 -0.00 1.00 0.00 73.00 -9.00 18.99 6.99 -0.00 0.00 1.03 7.97 -4.49 1.01 -0.03 -0.00 0.00 0.00 -0.00 -0.60 0.07 0.02 1.02 0.00 -0.02 0.00 0.00 -0.00 -0.00 -0.00 0.00 
-681.394104 45.355270 2165.959717 -0.20 -0.05 -14.45 1.13 0.00 -0.00 -6.81 -0.01 0.00 0.00 0.00 -0.00 0.00 0.00 -0.00 -0.00 1.00 0.00 -73.01 9.00 18.98 -7.00 -0.00 -0.00 -1.04 -7.98 -4.49 -0.00 1.00 0.00 73.00 -9.00 18.99 6.99 -0.00 0.00 1.03 7.97 -4.49 1.05 -0.03 -0.00 0.00 0.00 -0.00 -0.63 0.07 0.02 1.06 0.00 -0.02 0.00 0.00 -0.00 -0.00 -0.00 0.00 
-681.391052 45.330093 2165.975098 -0.40 -0.10 -14.45 1.15 0.00 -0.00 -6.97 -0.01 0.00 0.00 0.00 -0.00 0.00 0.00 -0.00 -0.00 1.00 0.00 -73.01 8.99 18.99 -7.00 -0.00 -0.00 -1.04 -7.98 -4.49 -0.00 1.00 0.00 73.00 -9.00 18.99 6.99 -0.00 0.00 1.03 7.97 -4.49 1.07 -0.03 -0.00 0.00 0.00 -0.00 -0.64 0.06 0.02 1.07 0.00 -0.02 0.00 0.00 -0.00 -0.00 -0.00 0.00 
-681.388000 45.300339 2165.984375 -0.60 -0.15 -14.45 1.16 0.00 -0.00 -7.07 -0.01 0.00 0.00 0.00 -0.00 0.00 0.00 -0.00 -0.00 1.00 0.00 -73.01 9.00 18.98 -7.00 -0.00 -0.00 -1.04 -7.98 -4.49 -0.00 1.00 0.00 73.00 -9.00 18.99 6.99 -0.00 0.00 1.03 7.97 -4.49 1.08 -0.03 -0.00 0.00 0.00 -0.00 -0.65 0.05 0.02 1.09 0.00 -0.02 0.00 0.00 -0.00 -0.00 -0.00 0.00 
-681.384949 45.276684 2165.999268 -0.81 -0.21 -14.45 1.18 0.00 -0.00 -7.10 -0.01 0.00 0.00 0.00 -0.00 0.00 0.00 -0.00 -0.00 1.00 0.00 -73.01 9.00 18.98 -7.00 -0.00 -0.00 -1.04 -7.98 -4.49 -0.00 1.00 0.00 73.00 -9.00 18.99 6.99 -0.00 0.00 1.03 7.97 -4.49 1.10 -0.03 -0.00 0.00 0.00 -0.00 -0.68 0.05 0.01 1.10 0.00 -0.02 0.00 0.00 -0.00 -0.00 -0.00 0.00 
-681.381836 45.264481 2166.011475 -0.91 -0.23 -14.44 1.17 0.00 -0.00 -7.08 -0.01 0.00 0.00 0.00 -0.00 0.00 0.00 -0.00 -0.00 1.00 0.00 -73.01 9.00 18.98 -7.00 -0.00 -0.00 -1.04 -7.98 -4.49 -0.00 1.00 0.00 73.00 -9.00 18.99 6.99 -0.00 0.00 1.03 7.97 -4.49 1.09 -0.03 -0.00 0.00 0.00 -0.00 -0.66 0.04 0.01 1.10 0.00 -0.02 0.00 0.00 -0.00 -0.00 -0.00 0.00 
-681.381836 45.285843 2166.023926 -0.75 -0.19 -14.45 1.15 0.00 -0.00 -6.98 -0.01 0.00 0.00 0.00 -0.00 0.00 0.00 -0.00 -0.00 1.00 0.00 -73.01 9.00 18.99 -7.00 -0.00 -0.00 -1.04 -7.98 -4.49 -0.00 1.00 0.00 73.00 -9.00 18.99 6.99 -0.00 0.00 1.03 7.97 -4.49 1.08 -0.03 -0.00 0.00 0.00 -0.00 -0.66 0.03 0.01 1.08 0.00 -0.02 0.00 0.00 -0.00 -0.00 -0.00 0.00 
-681.381836 45.298809 2166.036133 -0.64 -0.16 -14.45 1.14 0.00 -0.00 -6.89 -0.01 0.00 0.00 0.00 -0.00 0.00 0.00 -0.00 -0.00 1.00 0.00 -73.01 8.99 18.99 -7.00 -0.00 -0.00 -1.04 -7.98 -4.49 -0.00 1.00 0.00 73.00 -9.00 18.99 6.99 -0.00 0.00 1.03 7.97 -4.49 1.06 -0.03 -0.00 0.00 0.00 -0.00 -0.64 0.05 0.01 1.07 0.00 -0.02 0.00 0.00 -0.00 -0.00 -0.00 0.00 
-681.384949 45.321701 2166.048340 -0.46 -0.12 -14.45 1.09 0.00 -0.00 -6.65 -0.01 0.00 0.00 0.00 -0.00 0.00 0.00 -0.00 -0.00 1.00 0.00 -73.01 9.00 18.98 -7.00 -0.00 -0.00 -1.04 -7.98 -4.49 -0.00 1.00 0.00 73.00 -9.00 18.99 6.99 -0.00 0.00 1.03 7.97 -4.49 1.04 -0.03 0.00 0.00 0.00 -0.00 -0.63 0.07 0.04 1.04 0.00 -0.02 0.00 0.00 -0.00 -0.00 -0.00 0.00 
-681.384949 45.334671 2166.057373 -0.33 -0.08 -14.45 1.06 0.00 -0.00 -6.42 -0.01 0.00 0.00 0.00 -0.00 0.00 0.00 -0.00 -0.00 1.00 0.00 -73.01 9.00 18.98 -7.00 -0.00 -0.00 -1.04 -7.98 -4.49 -0.00 1.00 0.00 73.00 -9.00 18.99 6.99 -0.00 0.00 1.03 7.97 -4.49 0.99 -0.03 0.00 0.00 0.00 -0.00 -0.61 0.06 0.02 0.99 0.00 -0.02 0.00 0.00 -0.00 -0.00 -0.00 0.00 
-681.384949 45.352219 2166.066650 -0.20 -0.05 -14.45 1.00 0.00 -0.00 -6.10 -0.01 0.00 0.00 0.00 -0.00 0.00 0.00 -0.00 -0.00 1.00 0.00 -73.01 8.99 18.99 -7.00 -0.00 -0.00 -1.04 -7.98 -4.49 -0.00 1.00 0.00 73.00 -9.00 18.99 6.99 -0.00 0.00 1.03 7.97 -4.49 0.94 -0.02 0.00 0.00 0.00 -0.00 -0.60 0.00 0.00 0.94 0.00 -0.02 0.00 0.00 -0.00 -0.00 -0.00 0.00 
-681.384949 45.372818 2166.078613 -0.06 -0.01 -14.45 0.96 0.00 -0.00 -5.80 -0.01 0.00 0.00 0.00 -0.00 0.00 0.00 -0.00 -0.00 1.00 0.00 -73.01 9.00 18.98 -7.00 -0.00 -0.00 -1.04 -7.98 -4.49 -0.00 1.00 0.00 73.00 -9.00 18.99 6.99 -0.00 0.00 1.03 7.97 -4.49 0.90 -0.02 -0.00 0.00 0.00 -0.00 -0.57 0.02 0.00 0.89 0.00 -0.01 0.00 0.00 -0.00 -0.00 -0.00 0.00 
-681.384949 45.380447 2166.087891 0.00 0.00 -14.45 0.86 0.00 -0.00 -5.25 -0.01 0.00 0.00 0.00 -0.00 0.00 0.00 -0.00 -0.00 1.00 0.00 -73.01 9.00 18.98 -7.00 -0.00 -0.00 -1.04 -7.98 -4.49 -0.00 1.00 0.00 73.00 -9.00 18.99 6.99 -0.00 0.00 1.03 7.97 -4.49 0.81 -0.03 -0.01 0.00 0.00 -0.00 -0.51 0.02 0.01 0.80 0.00 -0.01 0.00 0.00 -0.00 -0.00 -0.00 0.00 
-681.384949 45.383499 2166.100098 0.00 0.00 -14.45 0.78 0.00 -0.00 -4.77 -0.01 0.00 0.00 0.00 -0.00 0.00 0.00 -0.00 -0.00 1.00 0.00 -73.01 8.99 18.99 -7.00 -0.00 -0.00 -1.04 -7.98 -4.49 -0.00 1.00 0.00 73.00 -9.00 18.99 6.99 -0.00 0.00 1.03 7.97 -4.49 0.73 -0.03 -0.01 0.00 0.00 -0.00 -0.47 0.01 0.01 0.73 -0.00 -0.01 0.00 0.00 -0.00 -0.00 -0.00 0.00 
-681.384949 45.380447 2166.109131 0.00 0.00 -14.45 0.72 0.00 -0.00 -4.40 -0.01 0.00 0.00 0.00 -0.00 0.00 0.00 -0.00 -0.00 1.00 0.00 -73.01 9.00 18.98 -7.00 -0.00 -0.00 -1.04 -7.98 -4.49 -0.00 1.00 0.00 73.00 -9.00 18.99 6.99 -0.00 0.00 1.03 7.97 -4.49 0.67 -0.03 -0.01 0.00 0.00 -0.00 -0.43 0.01 0.01 0.66 0.00 -0.01 0.00 0.00 -0.00 -0.00 -0.00 0.00 
-681.384949 45.386547 2166.124512 0.00 0.00 -14.45 0.63 0.00 -0.00 -3.86 -0.01 0.00 0.00 0.00 -0.00 0.00 0.00 -0.00 -0.00 1.00 0.00 -73.01 9.00 18.99 -7.00 -0.00 -0.00 -1.04 -7.98 -4.49 -0.00 1.00 0.00 73.00 -9.00 18.99 6.99 -0.00 0.00 1.03 7.97 -4.49 0.58 -0.02 -0.00 0.00 0.00 -0.00 -0.37 0.01 0.01 0.58 -0.00 -0.01 0.00 0.00 -0.00 -0.00 -0.00 0.00 
-681.384949 45.383499 2166.136719 0.00 0.00 -14.45 0.49 0.00 -0.00 -2.96 -0.01 0.00 0.00 0.00 -0.00 0.00 0.00 -0.00 -0.00 1.00 0.00 -73.01 9.00 18.98 -7.00 -0.00 -0.00 -1.04 -7.98 -4.49 -0.00 1.00 0.00 73.00 -9.00 18.99 6.99 -0.00 0.00 1.03 7.97 -4.49 0.45 -0.02 -0.00 0.00 0.00 -0.00 -0.28 0.00 0.01 0.44 0.00 -0.01 0.00 0.00 -0.00 -0.00 -0.00 0.00 
-681.384949 45.383499 2166.148926 0.00 0.00 -14.45 0.41 0.00 -0.00 -2.53 -0.01 0.00 0.00 0.00 -0.00 0.00 0.00 -0.00 -0.00 1.00 0.00 -73.01 8.99 18.99 -7.00 -0.00 -0.00 -1.04 -7.98 -4.49 -0.00 1.00 0.00 73.00 -9.00 18.99 6.99 -0.00 0.00 1.03 7.97 -4.49 0.37 -0.01 -0.00 0.00 0.00 -0.00 -0.23 0.00 0.00 0.38 0.00 -0.01 0.00 0.00 -0.00 -0.00 -0.00 0.00 
-681.384949 45.380447 2166.161133 0.00 0.00 -14.45 0.31 0.00 -0.00 -1.96 -0.01 0.00 0.00 0.00 -0.00 0.00 0.00 -0.00 -0.00 1.00 0.00 -73.01 8.99 18.99 -7.00 -0.00 -0.00 -1.04 -7.98 -4.49 -0.00 1.00 0.00 73.00 -9.00 18.99 6.99 -0.00 0.00 1.03 7.97 -4.49 0.28 -0.01 -0.00 0.00 0.00 -0.00 -0.18 -0.00 -0.00 0.27 -0.00 -0.02 0.00 0.00 -0.00 -0.00 -0.00 0.00 
-681.384949 45.386547 2166.176514 0.00 0.00 -14.45 0.23 0.00 -0.00 -1.45 -0.01 0.00 0.00 0.00 -0.00 0.00 0.00 -0.00 -0.00 1.00 0.00 -73.01 9.00 18.98 -7.00 -0.00 -0.00 -1.04 -7.98 -4.49 -0.00 1.00 0.00 73.00 -9.00 18.99 6.99 -0.00 0.00 1.03 7.97 -4.49 0.20 -0.01 -0.00 0.00 0.00 -0.00 -0.13 0.00 0.00 0.21 0.00 -0.01 0.00 0.00 -0.00 -0.00 -0.00 0.00 
-681.384949 45.383499 2166.188477 0.00 0.00 -14.45 0.13 0.00 -0.00 -0.87 -0.01 0.00 0.00 0.00 -0.00 0.00 0.00 -0.00 -0.00 1.00 0.00 -73.01 8.99 18.99 -7.00 -0.00 -0.00 -1.04 -7.98 -4.49 -0.00 1.00 0.00 73.00 -9.00 18.99 6.99 -0.00 0.00 1.03 7.97 -4.49 0.11 -0.01 -0.00 0.00 0.00 -0.00 -0.06 -0.00 0.00 0.11 0.00 -0.01 0.00 0.00 -0.00 -0.00 -0.00 0.00 
-681.384949 45.383499 2166.200684 0.00 0.00 -14.45 0.07 0.00 -0.00 -0.47 -0.01 0.00 0.00 0.00 -0.00 0.00 0.00 -0.00 -0.00 1.00 0.00 -73.01 9.00 18.98 -7.00 -0.00 -0.00 -1.04 -7.98 -4.49 -0.00 1.00 0.00 73.00 -9.00 18.99 6.99 -0.00 0.00 1.03 7.97 -4.49 0.05 -0.01 -0.00 0.00 0.00 -0.00 -0.03 -0.00 -0.00 0.05 0.00 -0.02 0.00 0.00 -0.00 -0.00 -0.00 0.00 
-681.384949 45.383499 2166.213135 0.00 0.00 -14.45 0.00 0.00 -0.00 -0.07 -0.00 0.00 0.00 0.00 -0.00 0.00 0.00 -0.00 -0.00 1.00 0.00 -73.01 9.00 18.99 -7.00 -0.00 -0.00 -1.04 -7.98 -4.49 -0.00 1.00 0.00 73.00 -9.00 18.99 6.99 -0.00 0.00 1.03 7.97 -4.49 0.00 0.00 -0.00 0.00 0.00 -0.00 -0.00 -0.00 0.00 0.00 0.00 -0.00 0.00 0.00 -0.00 -0.00 -0.00 0.00 
-681.384949 45.383499 2166.225342 0.00 0.00 -14.45 0.01 0.00 -0.00 -0.14 -0.01 0.00 0.00 0.00 -0.00 0.00 0.00 -0.00 -0.00 1.00 0.00 -73.01 8.99 18.99 -7.00 -0.00 -0.00 -1.04 -7.98 -4.49 -0.00 1.00 0.00 73.00 -9.00 18.99 6.99 -0.00 0.00 1.03 7.97 -4.49 0.00 0.00 -0.00 0.00 0.00 -0.00 -0.00 -0.00 0.00 0.00 0.00 -0.01 0.00 0.00 -0.00 -0.00 -0.00 0.00 
